<svg id="Capa_1" enable-background="new 0 0 512 512" height="512" viewBox="0 0 512 512" width="512" xmlns="http://www.w3.org/2000/svg"><g><g fill="#7a6d79"><path d="m353.04 233.269c-4.267 0-7.726-3.459-7.726-7.726v-34.318l-14.007-13.308c-3.094-2.939-3.218-7.83-.279-10.923 2.94-3.094 7.83-3.218 10.923-.279l16.411 15.593c1.535 1.458 2.404 3.483 2.404 5.601v37.635c0 4.266-3.459 7.725-7.726 7.725z"/><path d="m158.955 233.269c-4.267 0-7.726-3.459-7.726-7.726v-37.635c0-2.118.869-4.142 2.404-5.601l16.41-15.593c3.093-2.939 7.984-2.815 10.923.279 2.939 3.093 2.814 7.984-.279 10.923l-14.006 13.308v34.318c0 4.268-3.459 7.727-7.726 7.727z"/></g><g><path d="m216.602 310.306c-11.608-11.608-14.316-14.305-28.631-28.611v-62.389c0-21.661 10.131-40.955 25.913-53.412h84.226c2.1 1.658 4.098 3.439 5.982 5.323 12.313 12.313 19.921 29.311 19.921 48.089v62.389c-13.038 13.038-17.39 12.173-28.611 28.611" fill="#7a6d79"/><path d="m256.002 247.046c-4.267 0-7.726-3.459-7.726-7.726v-51.723c0-4.267 3.459-7.726 7.726-7.726s7.726 3.459 7.726 7.726v51.723c0 4.267-3.459 7.726-7.726 7.726z" fill="#685e68"/><path d="m295.402 281.695h-.01" fill="#ffdfcf"/><path d="m298.114 165.89-34.387 38.838c-4.107 4.638-11.346 4.638-15.453 0l-34.387-38.838c11.579-9.138 26.208-14.598 42.114-14.598s30.513 5.46 42.113 14.598z" fill="#f5f8f9"/><path d="m263.726 166.363v38.365l-4.093 4.623c-1.931 2.181-5.335 2.181-7.266 0l-4.093-4.623v-38.632c0-4.437 3.746-8.004 8.245-7.709 4.105.268 7.207 3.862 7.207 7.976z" fill="#f9f7f8"/><path d="m295.917 93.158v18.223c0 11.057-4.499 21.064-11.767 28.281-3.356 3.346-7.32 6.095-11.695 8.082v9.616c0 9.091-7.361 16.462-16.452 16.462-9.101 0-16.462-7.371-16.462-16.462v-9.616c-13.837-6.27-23.463-20.189-23.463-36.363v-29.466s11.366-5.014 28.034-5.312c14.567-.257 33.191 3.089 51.805 16.555z" fill="#ffdfcf"/><path d="m284.15 139.662c-3.356 3.346-7.32 6.095-11.695 8.082v9.616c0 9.091-7.361 16.462-16.452 16.462-9.101 0-16.462-7.371-16.462-16.462v-9.616c-13.837-6.27-23.463-20.189-23.463-36.363v-29.466s11.366-5.014 28.034-5.312v27.941c0 12.395 7.773 23.463 19.437 27.674z" fill="#ffcebf"/><path d="m295.922 93.158h-.01" fill="#ffdfcf"/><path d="m295.917 81.915v11.253c-17.533 5.034-36.661 2.615-51.806-1.235-16.339-4.17-28.034-10.017-28.034-10.017 0-22.042 17.873-39.915 39.925-39.915 3.264 0 6.435.391 9.472 1.132 7.227 1.761 13.672 5.477 18.748 10.563 7.227 7.217 11.695 17.193 11.695 28.219z" fill="#7a6d79"/><path d="m265.474 43.133c-12.334 3.49-21.363 14.836-21.363 28.291v20.508c-16.339-4.17-28.034-10.017-28.034-10.017 0-22.042 17.873-39.915 39.925-39.915 3.264.001 6.435.392 9.472 1.133z" fill="#685e68"/></g><path d="m363.804 255.894-3.789 25.799-31.895 217.395h-144.247l-35.683-243.194 107.812-15.176z" fill="#ffe177"/><path d="m360.015 281.693h-172.044l23.463 217.395h-27.561l-35.683-243.194 107.812-15.176 107.802 15.176z" fill="#fece85"/><path d="m375.825 228.378h-239.666c-4.622 0-8.369 3.747-8.369 8.369v13.61c0 4.622 3.747 8.369 8.369 8.369h239.666c4.622 0 8.369-3.747 8.369-8.369v-13.61c0-4.622-3.747-8.369-8.369-8.369z" fill="#ffe177"/><g><g><path d="m447.999 438.797c-35.347 0-64.001 28.654-64.001 64.001 0 4.988 4.044 9.032 9.032 9.032h109.937c4.988 0 9.032-4.044 9.032-9.032.001-35.347-28.653-64.001-64-64.001z" fill="#dc8758"/><path d="m421.853 502.802c0 2.497 1.017 4.757 2.644 6.395 1.638 1.638 3.898 2.644 6.395 2.644h-37.852c-2.497 0-4.757-1.006-6.395-2.644-1.627-1.638-2.644-3.898-2.644-6.395 0-35.344 28.654-63.998 64.009-63.998 6.587 0 12.949.994 18.926 2.847-26.112 8.067-45.083 32.394-45.083 61.151z" fill="#c57a44"/><path d="m491.806 361.719v27.897c0 17.322-10.045 32.281-24.632 39.389-.362.181-.734.35-1.107.52v10.553c0 9.977-8.09 18.067-18.067 18.067s-18.067-8.09-18.067-18.067v-10.553c-15.186-6.881-25.739-22.157-25.739-39.908v-27.897h87.612z" fill="#ffdfcf"/><path d="m467.174 429.005c-.362.181-.734.35-1.107.52v10.553c0 9.977-8.09 18.067-18.067 18.067s-18.067-8.09-18.067-18.067v-10.553c-15.186-6.881-25.739-22.157-25.739-39.908v-27.897h31.75v30.338c-.001 18.563 13.513 33.975 31.23 36.947z" fill="#ffcebf"/><path d="m491.806 357.278v4.441c0 24.203-19.615 43.806-43.806 43.806-3.435 0-6.779-.395-9.977-1.141-8.09-1.887-15.322-6.011-20.994-11.683-7.932-7.932-12.836-18.881-12.836-30.982v-4.441c0-24.203 19.615-43.806 43.806-43.806 4.599 0 9.039.712 13.209 2.034 6.779 2.135 12.858 5.887 17.762 10.791 7.932 7.931 12.836 18.88 12.836 30.981z" fill="#7a6d79"/><path d="m435.943 350.94v41.117c0 4.327.734 8.474 2.079 12.327-8.09-1.887-15.322-6.011-20.994-11.683-7.932-7.932-12.836-18.881-12.836-30.982v-4.441c0-24.203 19.615-43.806 43.806-43.806 4.599 0 9.039.712 13.209 2.034-14.699 5.062-25.264 19.016-25.264 35.434z" fill="#685e68"/></g><g><path d="m319.998 438.797c-35.347 0-64.001 28.654-64.001 64.001 0 4.988 4.044 9.032 9.032 9.032h109.937c4.988 0 9.032-4.044 9.032-9.032.001-35.347-28.653-64.001-64-64.001z" fill="#fe76a8"/><path d="m293.852 502.802c0 2.497 1.017 4.757 2.644 6.395 1.638 1.638 3.898 2.644 6.395 2.644h-37.852c-2.497 0-4.757-1.006-6.395-2.644-1.627-1.638-2.644-3.898-2.644-6.395 0-35.344 28.654-63.998 64.009-63.998 6.587 0 12.949.994 18.926 2.847-26.112 8.067-45.083 32.394-45.083 61.151z" fill="#fe5694"/><path d="m363.804 361.719v27.897c0 17.322-10.045 32.281-24.632 39.389-.362.181-.734.35-1.107.52v10.553c0 9.977-8.09 18.067-18.067 18.067s-18.067-8.09-18.067-18.067v-10.553c-15.186-6.881-25.739-22.157-25.739-39.908v-27.897h87.612z" fill="#ffdfcf"/><path d="m339.172 429.005c-.362.181-.734.35-1.107.52v10.553c0 9.977-8.09 18.067-18.067 18.067s-18.067-8.09-18.067-18.067v-10.553c-15.186-6.881-25.739-22.157-25.739-39.908v-27.897h31.75v30.338c0 18.563 13.513 33.975 31.23 36.947z" fill="#ffcebf"/><path d="m363.804 357.278v4.441c0 24.203-19.615 43.806-43.806 43.806-3.435 0-6.779-.395-9.977-1.141-8.09-1.887-15.322-6.011-20.994-11.683-7.932-7.932-12.836-18.881-12.836-30.982v-4.441c0-24.203 19.615-43.806 43.806-43.806 4.599 0 9.039.712 13.209 2.034 6.779 2.135 12.858 5.887 17.762 10.791 7.933 7.931 12.836 18.88 12.836 30.981z" fill="#ae6c6c"/><path d="m307.942 350.94v41.117c0 4.327.734 8.474 2.079 12.327-8.09-1.887-15.322-6.011-20.994-11.683-7.932-7.932-12.836-18.881-12.836-30.982v-4.441c0-24.203 19.615-43.806 43.806-43.806 4.599 0 9.039.712 13.209 2.034-14.7 5.062-25.264 19.016-25.264 35.434z" fill="#9b5e5e"/></g><g><path d="m191.997 438.797c-35.347 0-64.001 28.654-64.001 64.001 0 4.988 4.044 9.032 9.032 9.032h109.937c4.988 0 9.032-4.044 9.032-9.032 0-35.347-28.654-64.001-64-64.001z" fill="#8ac9fe"/><path d="m165.85 502.802c0 2.497 1.017 4.757 2.644 6.395 1.638 1.638 3.898 2.644 6.395 2.644h-37.852c-2.497 0-4.757-1.006-6.395-2.644-1.627-1.638-2.644-3.898-2.644-6.395 0-35.344 28.654-63.998 64.009-63.998 6.587 0 12.949.994 18.926 2.847-26.111 8.067-45.083 32.394-45.083 61.151z" fill="#60b7ff"/><path d="m235.803 361.719v27.897c0 17.322-10.045 32.281-24.632 39.389-.362.181-.734.35-1.107.52v10.553c0 9.977-8.09 18.067-18.067 18.067s-18.067-8.09-18.067-18.067v-10.553c-15.186-6.881-25.739-22.157-25.739-39.908v-27.897h87.612z" fill="#ffdfcf"/><path d="m211.171 429.005c-.362.181-.734.35-1.107.52v10.553c0 9.977-8.09 18.067-18.067 18.067s-18.067-8.09-18.067-18.067v-10.553c-15.186-6.881-25.739-22.157-25.739-39.908v-27.897h31.75v30.338c-.001 18.563 13.513 33.975 31.23 36.947z" fill="#ffcebf"/><path d="m235.803 357.278v4.441c0 24.203-19.615 43.806-43.806 43.806-3.435 0-6.779-.395-9.977-1.141-8.09-1.887-15.322-6.011-20.994-11.683-7.932-7.932-12.836-18.881-12.836-30.982v-4.441c0-24.203 19.615-43.806 43.806-43.806 4.599 0 9.039.712 13.209 2.034 6.779 2.135 12.858 5.887 17.762 10.791 7.932 7.931 12.836 18.88 12.836 30.981z" fill="#7a6d79"/><path d="m179.94 350.94v41.117c0 4.327.734 8.474 2.079 12.327-8.09-1.887-15.322-6.011-20.994-11.683-7.932-7.932-12.836-18.881-12.836-30.982v-4.441c0-24.203 19.615-43.806 43.806-43.806 4.599 0 9.039.712 13.209 2.034-14.699 5.062-25.264 19.016-25.264 35.434z" fill="#685e68"/></g><g><path d="m64.001 438.797c-35.347 0-64.001 28.654-64.001 64 0 4.988 4.044 9.032 9.032 9.032h109.937c4.988 0 9.032-4.044 9.032-9.032 0-35.346-28.654-64-64-64z" fill="#7a6d79"/><path d="m37.855 502.802c0 2.497 1.017 4.757 2.644 6.395 1.638 1.638 3.898 2.644 6.395 2.644h-37.852c-2.497 0-4.757-1.006-6.395-2.644-1.627-1.638-2.644-3.898-2.644-6.395 0-35.344 28.654-63.998 64.009-63.998 6.587 0 12.949.994 18.926 2.847-26.112 8.067-45.083 32.394-45.083 61.151z" fill="#685e68"/><path d="m107.807 361.719v27.897c0 17.322-10.045 32.281-24.632 39.389-.362.181-.734.35-1.107.52v10.553c0 9.977-8.09 18.067-18.067 18.067s-18.067-8.09-18.067-18.067v-10.553c-15.186-6.881-25.739-22.157-25.739-39.908v-27.897h87.612z" fill="#ffdfcf"/><path d="m83.175 429.005c-.362.181-.734.35-1.107.52v10.553c0 9.977-8.09 18.067-18.067 18.067s-18.067-8.09-18.067-18.067v-10.553c-15.186-6.881-25.739-22.157-25.739-39.908v-27.897h31.75v30.338c0 18.563 13.513 33.975 31.23 36.947z" fill="#ffcebf"/><path d="m107.807 357.278v4.441c0 24.203-19.615 43.806-43.806 43.806-3.435 0-6.779-.395-9.977-1.141-8.09-1.887-15.322-6.011-20.994-11.683-7.932-7.932-12.836-18.881-12.836-30.982v-4.441c0-24.203 19.615-43.806 43.806-43.806 4.599 0 9.039.712 13.209 2.034 6.779 2.135 12.858 5.887 17.762 10.791 7.932 7.931 12.836 18.88 12.836 30.981z" fill="#ae6c6c"/><path d="m51.945 350.94v41.117c0 4.327.734 8.474 2.079 12.327-8.09-1.887-15.322-6.011-20.994-11.683-7.932-7.932-12.836-18.881-12.836-30.982v-4.441c0-24.203 19.615-43.806 43.806-43.806 4.599 0 9.039.712 13.209 2.034-14.7 5.062-25.264 19.016-25.264 35.434z" fill="#9b5e5e"/></g></g><path d="m456.078.159h-89.776c-16.388 0-29.674 13.285-29.674 29.674v104.899c0 7.231 7.937 11.654 14.087 7.851l37.453-23.163c3.861-2.388 8.31-3.652 12.85-3.652h55.06c16.388 0 29.674-13.285 29.674-29.674v-56.261c0-16.388-13.285-29.674-29.674-29.674z" fill="#f9f7f8"/><g fill="#7a6d79"><path d="m457.145 43.264h-91.908c-4.267 0-7.726-3.459-7.726-7.726s3.459-7.726 7.726-7.726h91.908c4.267 0 7.726 3.459 7.726 7.726s-3.459 7.726-7.726 7.726z"/><path d="m457.145 68.845h-91.908c-4.267 0-7.726-3.459-7.726-7.726s3.459-7.726 7.726-7.726h91.908c4.267 0 7.726 3.459 7.726 7.726s-3.459 7.726-7.726 7.726z"/></g></g></svg>