<svg id="Capa_1" enable-background="new 0 0 512 512" height="512" viewBox="0 0 512 512" width="512" xmlns="http://www.w3.org/2000/svg"><g><g><path d="m291.651 53.941h-71.303c-18.544 0-33.577 15.033-33.577 33.577v68.936h138.456v-68.936c.001-18.544-15.032-33.577-33.576-33.577z" fill="#fe76a8"/><path d="m256.608 53.94c-18.543 0-33.574 15.03-33.574 33.574v68.94h-36.262v-68.94c0-18.543 15.03-33.574 33.574-33.574z" fill="#fe5694"/><path d="m296.991 40.991c0 22.643-18.348 41.001-40.991 41.001s-40.991-18.358-40.991-41.001c0-5.408 1.051-10.57 2.957-15.298 16.677 6.834 20.799 3.068 38.034 3.068s19.077 4.945 38.034-3.068c1.906 4.728 2.957 9.889 2.957 15.298z" fill="#ffdfcf"/><path d="m294.034 25.693c-6.057 15.071-20.799 25.703-38.034 25.703s-31.977-10.631-38.034-25.703c6.057-15.062 20.799-25.693 38.034-25.693s31.977 10.631 38.034 25.693z" fill="#7a6d79"/></g><path d="m291.651 458.059h-71.303c-18.544 0-33.577-15.033-33.577-33.577v-68.936h138.456v68.936c.001 18.544-15.032 33.577-33.576 33.577z" fill="#8ac9fe"/><path d="m256.608 458.06c-18.543 0-33.574-15.03-33.574-33.574v-68.94h-36.262v68.94c0 18.543 15.03 33.574 33.574 33.574z" fill="#60b7ff"/><path d="m296.991 471.009c0-22.643-18.348-41.001-40.991-41.001s-40.991 18.358-40.991 41.001c0 5.408 1.051 10.57 2.957 15.298 16.677-6.834 20.799-3.068 38.034-3.068s19.077-4.945 38.034 3.068c1.906-4.728 2.957-9.889 2.957-15.298z" fill="#ffdfcf"/><path d="m294.034 486.307c-6.057-15.072-20.799-25.703-38.034-25.703s-31.977 10.631-38.034 25.703c6.057 15.062 20.799 25.693 38.034 25.693s31.977-10.631 38.034-25.693z" fill="#7a6d79"/><g><g><path d="m98.838 124.096-35.651 61.75c-9.272 16.059-3.77 36.595 12.29 45.867l59.7 34.468 69.228-119.906-59.7-34.468c-16.06-9.273-36.595-3.771-45.867 12.289z" fill="#8ac9fe"/><path d="m81.315 154.444c-9.272 16.059-3.77 36.591 12.289 45.862l59.704 34.47-18.131 31.404-59.704-34.47c-16.059-9.272-21.56-29.803-12.289-45.862z" fill="#60b7ff"/><path d="m90.292 112.996c19.61 11.322 26.334 36.39 15.013 56-11.322 19.61-36.394 26.32-56.004 14.999-4.684-2.704-8.628-6.195-11.77-10.21 14.257-11.026 13.056-16.479 21.674-31.405 8.617-14.926 13.821-14.049 16.361-34.472 5.047.713 10.042 2.384 14.726 5.088z" fill="#ae6c6c"/><path d="m75.565 107.908c10.024 12.782 11.86 30.864 3.242 45.79-8.617 14.926-25.196 22.377-41.277 20.087-10.014-12.777-11.85-30.859-3.233-45.785 8.618-14.926 25.196-22.377 41.268-20.092z" fill="#7a6d79"/></g><g><path d="m448.814 326.154-35.651 61.75c-9.272 16.059-29.807 21.562-45.867 12.29l-59.7-34.468 69.228-119.906 59.7 34.468c16.059 9.272 21.562 29.807 12.29 45.866z" fill="#9be69d"/><path d="m431.293 356.504c-9.272 16.059-29.803 21.56-45.862 12.289l-59.704-34.47-18.131 31.404 59.704 34.47c16.059 9.272 36.591 3.77 45.862-12.289z" fill="#6fd7a3"/><path d="m462.699 328.005c-19.61-11.322-44.682-4.611-56.004 14.999s-4.597 44.678 15.013 56c4.684 2.704 9.679 4.375 14.727 5.089 2.42-17.86 7.743-19.547 16.361-34.472 8.617-14.926 5.256-18.994 21.674-31.405-3.143-4.016-7.087-7.506-11.771-10.211z" fill="#ffdfcf"/><path d="m474.469 338.215c-16.081-2.29-32.659 5.161-41.277 20.087-8.617 14.926-6.781 33.008 3.242 45.79 16.072 2.285 32.65-5.166 41.268-20.092s6.782-33.009-3.233-45.785z" fill="#7a6d79"/></g></g><g><g><path d="m63.186 326.154 35.651 61.75c9.272 16.059 29.807 21.562 45.867 12.29l59.7-34.468-69.227-119.906-59.7 34.468c-16.06 9.272-21.563 29.807-12.291 45.866z" fill="#7a6d79"/><path d="m80.707 356.504c9.272 16.059 29.803 21.56 45.862 12.289l59.704-34.47 18.131 31.404-59.704 34.47c-16.059 9.272-36.591 3.77-45.862-12.289z" fill="#685e68"/><path d="m49.301 328.005c19.61-11.322 44.682-4.611 56.004 14.999s4.597 44.678-15.013 56c-4.684 2.704-9.679 4.375-14.727 5.089-2.42-17.86-7.743-19.547-16.361-34.472-8.617-14.926-5.256-18.994-21.674-31.405 3.143-4.016 7.087-7.506 11.771-10.211z" fill="#ffdfcf"/><path d="m37.531 338.215c16.081-2.29 32.659 5.161 41.277 20.087 8.617 14.926 6.781 33.008-3.242 45.79-16.072 2.285-32.65-5.166-41.268-20.092s-6.782-33.009 3.233-45.785z" fill="#7a6d79"/></g><g><path d="m413.162 124.096 35.651 61.75c9.272 16.059 3.77 36.595-12.29 45.867l-59.7 34.468-69.228-119.906 59.7-34.468c16.06-9.273 36.595-3.771 45.867 12.289z" fill="#ffe177"/><path d="m430.685 154.444c9.272 16.059 3.77 36.591-12.289 45.862l-59.704 34.47 18.131 31.404 59.704-34.47c16.059-9.272 21.56-29.803 12.289-45.862z" fill="#fece85"/><path d="m421.708 112.996c-19.61 11.322-26.334 36.39-15.013 56 11.322 19.61 36.394 26.32 56.004 14.999 4.684-2.704 8.628-6.195 11.77-10.21-14.257-11.026-13.056-16.479-21.674-31.405-8.617-14.926-13.821-14.049-16.361-34.472-5.047.713-10.042 2.384-14.726 5.088z" fill="#ae6c6c"/><path d="m436.435 107.908c-10.024 12.782-11.86 30.864-3.242 45.79 8.617 14.926 25.196 22.377 41.277 20.087 10.015-12.777 11.851-30.859 3.233-45.785s-25.196-22.377-41.268-20.092z" fill="#7a6d79"/></g></g><circle cx="256" cy="256" fill="#dc8758" r="139.3"/><path d="m277.831 222.478-23.028 54.623c-1.424 3.377-5.316 4.961-8.694 3.537l-77.023-32.472c-3.377-1.424-4.961-5.316-3.537-8.694l23.028-54.623c1.424-3.377 5.316-4.961 8.694-3.537l77.023 32.472c3.377 1.424 4.961 5.317 3.537 8.694z" fill="#d8ecfe"/><path d="m348.027 285.065-54.366 23.63c-3.362 1.461-7.271-.08-8.732-3.441l-33.32-76.66c-1.461-3.362.08-7.271 3.441-8.732l54.366-23.63c3.362-1.461 7.271.08 8.732 3.441l33.32 76.66c1.461 3.362-.08 7.271-3.441 8.732z" fill="#f9f7f8"/><path d="m338.514 326.007-54.366 23.63c-3.362 1.461-7.271-.08-8.732-3.441l-33.32-76.66c-1.461-3.362.08-7.271 3.441-8.732l54.366-23.63c3.362-1.461 7.271.08 8.732 3.441l33.32 76.66c1.461 3.362-.079 7.271-3.441 8.732z" fill="#f5f8f9"/><path d="m268.074 394.776c-3.976.35-8.004.525-12.074.525-76.933 0-139.3-62.367-139.3-139.301s62.367-139.301 139.301-139.301c4.069 0 8.097.175 12.074.525-71.279 6.109-127.228 65.911-127.228 138.776s55.949 132.667 127.227 138.776z" fill="#c57a44"/><g><path d="m278.118 370.995 12.197 12.197v41.29h34.913v-49.263c0-4.162-1.659-8.159-4.605-11.105l-17.812-17.812-17.553 7.453z" fill="#8ac9fe"/><path d="m273.441 366.318 4.677 4.677 24.693-24.693-4.677-4.677c-3.41-3.41-7.881-5.11-12.342-5.11-4.471 0-8.942 1.7-12.352 5.11-6.809 6.819-6.809 17.873.001 24.693z" fill="#ffdfcf"/></g><g><path d="m384.752 142.041-35.758 20.645-4.041 15.071-13.765 5.935c-2.497 9.311-16.458 6.222-13.962-3.093l-6.001-11.886 6.094-22.742c1.078-4.023 3.71-7.452 7.316-9.535l42.66-24.63" fill="#ffe177"/><path d="m325.97 198.671c-1.494 0-3.018-.196-4.533-.598-9.303-2.503-14.835-12.074-12.342-21.376l2.132-7.984 33.728 9.045-2.132 7.974c-2.091 7.798-9.137 12.939-16.853 12.939z" fill="#9b5e5e"/></g><g><path d="m92.933 310.523 35.758-20.645 15.064 4.033s16.618-3.65 19.115-12.961c2.498-9.315-10.07-20.766-10.07-20.766l-22.747-6.095c-4.023-1.078-8.309-.514-11.916 1.569l-42.66 24.63z" fill="#7a6d79"/><path d="m173.711 279.175c0 1.494-.196 3.018-.598 4.533-2.503 9.303-12.074 14.835-21.376 12.342l-7.984-2.132 9.045-33.728 7.974 2.132c7.798 2.09 12.939 9.137 12.939 16.853z" fill="#ffdfcf"/></g><g><path d="m233.875 371.004-12.197 12.197v41.29h-34.913v-49.263c0-4.162 1.659-8.159 4.605-11.105l17.812-17.812 17.553 7.453z" fill="#60b7ff"/><path d="m238.552 366.327-4.677 4.677-24.693-24.693 4.677-4.677c3.41-3.41 7.881-5.11 12.342-5.11 4.471 0 8.942 1.7 12.352 5.11 6.809 6.819 6.809 17.873-.001 24.693z" fill="#ffdfcf"/></g></g></svg>